<svg class="footer-logo" version="1.1" xmlns="http://www.w3.org/2000/svg" xmlns:xlink="http://www.w3.org/1999/xlink" x="0px" y="0px"
     width="76px" height="60px" viewBox="0 0 76 60" enable-background="new 0 0 76 60" xml:space="preserve">
    <g>
        <defs>
            <path class="logo-icon" id="SVGID_1_" d="M72.391,1.16c5.684-5.133,3.402,7.844,1.57,17.822c-0.193,1.05-1.596,0.431-1.615-0.405
                C72.084,6.874,71.135,2.294,72.391,1.16z M73.029,22.707c0.801,0.375,0.876,1.892,0.051,2.649
                c-1.334,1.221-2.191,0.258-1.933-0.928C70.989,23.187,72.291,22.36,73.029,22.707z M3.742,43.67
                c1.138,0.09,4.866-9.664,5.867-12.101c1.913-4.653,1.566-5.56,2.922-5.981c0.626-0.194,1.084-0.034,1.35,0.566
                c1.25,2.823,4.682,22.288-0.27,32.526c-1.299,2.687-2.347,0.608-2.172-0.459c1.729-10.554,2.128-12.537,0.74-27.347
                c-0.017-0.176-0.134-0.244-0.134-0.244s-0.92,3.901-1.504,5.741c-2.625,8.272-4.609,10.346-6.895,10.283
                c-7.338-0.203-1.368-18.769-1.143-19.302c0.442-1.041,1.506-0.984,2.006-0.693c0.782,0.454-0.277,4.484-0.9,10.217
                C3.171,40.911,3.356,43.64,3.742,43.67z M44.035,30.054c0.062,4.323,0.641,8.476-1.277,7.854
                c-2.134-0.689-1.697-3.193-1.912-4.519c-0.948,3.581-4.203,3.991-8.03-0.119c0.066,2.354,0.198,4.908,0.198,7.263
                c0,3.198-1.96,2.702-2.691,1.217c-0.673-1.365-0.456-9.313-0.762-13.483c-1.105,1.857-2.999,3.231-5.112,3.706
                c1.899,3.727,0.016,11.693-4.364,10.57c-3.385-0.867-2.442-12.685,1.029-13.697c1.203-0.351,1.438,0.307,2.192,0.582
                c0.591,0.215,1.95,1.465,6.054-3.811c0.887-1.14-0.471-10.123,1.256-9.265c0.972,0.482,0.645,2.377,1.857,11.422
                c4.338-2.263,4.24-6.594,5.477-4.186c0.6,1.167-1.705,4.876-4.48,6.37c0.856,1.323,4.615,7.089,7.286,1.156
                c0.329-0.732,0.384-3.761,0.631-10.849c0.231-6.653,0.918-7.6,1.795-7.161c1.228,0.616,1.208,8.602,0.714,12.738
                c4.918-4.356,3.193-9.613,5.221-8.425c2.005,1.176-0.493,8.094-3.755,10.452c3.263,0.596,6.696,0.243,9.761-1.252
                c0,0-1.148-4.406,1.85-7.751c0.983-1.097,3.955-1.081,4.832,2.167c0.604,2.231-0.438,4.809-2.572,6.545
                c-0.525,0.427,6.796,1.998,8.406-5.652c0.217-1.033,1.148-0.667,1.182-0.007c0.138,2.7-1.043,9.47-8.162,9.052
                c-2.592-0.152-4.264-1.944-4.264-1.944s-6.422,3.298-12.193,0.986C44.174,30.003,44.104,30.032,44.035,30.054z M21.727,31.415
                c-0.933,1.399-1.343,6.994-0.584,8.237C23.945,36,22.45,32.542,21.727,31.415 M57.32,25.842c2.637-1.234,2.578-4.654,2.174-5.302
                C58.699,19.269,56.648,22.628,57.32,25.842"/>
        </defs>
        <clipPath id="SVGID_2_">
            <use xlink:href="#SVGID_1_"  overflow="visible"/>
        </clipPath>
        <g clip-path="url(#SVGID_2_)">
            <defs>
                <rect id="SVGID_3_" x="-149" y="-10" width="1440" height="5574"/>
            </defs>
            <clipPath id="SVGID_4_">
                <use xlink:href="#SVGID_3_"  overflow="visible"/>
            </clipPath>
            <rect x="-5" y="-5" clip-path="url(#SVGID_4_)" fill="#4AD2F5" width="86" height="70"/>
        </g>
    </g>
</svg>